<?xml version="1.0" encoding="UTF-8"?><svg id="a" xmlns="http://www.w3.org/2000/svg" viewBox="0 0 536.99 286.05"><defs><style>.b{fill:#fff;}.c{fill:#f5d079;}.d{fill:#294d67;}</style></defs><rect class="d" x="198.66" width="156.97" height="159.49" rx="13.76" ry="13.76"/><path class="c" d="M225.02,71.73s6.51,6.95,6.5,6.99c.16,6.39,1.19,11.06,3.1,16.45,2.08,5.87,5.21,11.19,9.4,15.96l-7.39,9.05c-5.79-5.97-10.13-12.65-13-20.03-2.88-7.38-4.32-15.5-4.32-24.37s1.44-17,4.32-24.39c2.88-7.39,7.21-14.06,13-20l7.39,9.1c-4.19,4.74-7.32,10.05-9.4,15.91-1.11,3.12-1.92,4.81-2.44,8.27l-7.17,7.05Z"/><path class="c" d="M327.91,51.37c2.07,6.45,3.36,16.91,3.36,24.42,0,8.87-1.44,16.99-4.32,24.37s-7.21,14.05-13,20.03l-7.39-9.05c4.19-4.77,7.32-10.09,9.4-15.96,2.08-5.87,3.12-12.33,3.12-19.38,0-4.19.23-10.83-.23-14.63M311.88,46.13c-1.82-2.17-3.52-3.88-5.32-5.63l7.39-9.1c2.16,2.22,4.63,4.94,6.38,7.36"/><path class="b" d="M18.46,245.15h18.66v22.24c0,3.92-.73,7.27-2.17,10.05-1.45,2.78-3.55,4.91-6.29,6.39-2.74,1.48-6.06,2.22-9.94,2.22s-7.28-.72-10.07-2.15c-2.79-1.43-4.93-3.5-6.42-6.21-1.48-2.71-2.22-5.97-2.22-9.79v-38.55c0-4.02.72-7.46,2.17-10.33,1.45-2.86,3.55-5.05,6.31-6.57,2.76-1.52,6.07-2.28,9.92-2.28s7.07.73,9.77,2.2c2.69,1.47,4.75,3.59,6.19,6.37,1.43,2.78,2.15,6.13,2.15,10.05v5.73h-13.04v-5.73c0-1.81-.46-3.22-1.38-4.24-.92-1.02-2.15-1.53-3.68-1.53-1.7,0-3.05.57-4.04,1.71-.99,1.14-1.48,2.68-1.48,4.63v38.55c0,1.6.52,2.88,1.56,3.83,1.04.96,2.46,1.43,4.27,1.43s3.34-.5,4.4-1.51,1.59-2.39,1.59-4.17v-10.17h-6.24v-12.17Z"/><path class="b" d="M39.57,285.28l17.74-74.34h8.9l17.74,74.34h-12.58l-9.61-48.72-9.61,48.72h-12.58ZM51.64,273.73v-11.86h20.25v11.86h-20.25Z"/><path class="b" d="M89.47,285.28v-74.34h12.73v74.34h-12.73ZM96.73,285.28v-11.91h11.15c1.57,0,2.79-.42,3.66-1.25.87-.84,1.3-2,1.3-3.5v-9.97c0-1.84-.44-3.27-1.33-4.29-.89-1.02-2.17-1.53-3.83-1.53h-10.94v-11.76h10.63c1.5,0,2.67-.48,3.5-1.43s1.25-2.32,1.25-4.09v-7.98c0-1.5-.42-2.67-1.25-3.5s-1.99-1.25-3.45-1.25h-10.68v-11.86h11.96c5.04,0,8.96,1.34,11.73,4.01,2.78,2.68,4.17,6.45,4.17,11.32v7.98c0,3.37-.95,6.14-2.84,8.31-1.89,2.17-4.56,3.54-8,4.12,3.75.51,6.65,1.89,8.72,4.14,2.06,2.25,3.09,5.2,3.09,8.85v10.12c0,4.91-1.37,8.72-4.12,11.43-2.74,2.71-6.62,4.06-11.63,4.06h-13.09Z"/><path class="b" d="M128.28,285.28l17.74-74.34h8.9l17.74,74.34h-12.58l-9.61-48.72-9.61,48.72h-12.58ZM140.34,273.73v-11.86h20.25v11.86h-20.25Z"/><path class="b" d="M178.18,285.28v-74.39h12.42v74.39h-12.42ZM183.85,253.84v-12.17h13.4c1.67,0,2.97-.43,3.88-1.3.92-.87,1.38-2.07,1.38-3.6v-8.28c0-1.7-.46-3.03-1.38-3.99-.92-.95-2.22-1.43-3.88-1.43h-13.4v-12.17h12.63c4.02,0,7.46.66,10.3,1.97,2.85,1.31,5.02,3.23,6.52,5.75,1.5,2.52,2.25,5.57,2.25,9.15v8.69c0,3.68-.75,6.82-2.25,9.41-1.5,2.59-3.67,4.57-6.52,5.93-2.85,1.36-6.28,2.04-10.3,2.04h-12.63ZM204.05,285.28l-9.87-33.74,11.61-2.35,11.86,36.1h-13.6Z"/><path class="b" d="M237.13,210.94v74.34h-12.68v-74.34h12.68Z"/><path class="b" d="M244.18,223.11v-12.17h37.22v12.17h-37.22ZM256.45,285.28v-68.1h12.68v68.1h-12.68Z"/><path class="b" d="M304.41,286.05c-3.99,0-7.41-.69-10.25-2.07-2.85-1.38-5.02-3.37-6.52-5.98-1.5-2.61-2.25-5.75-2.25-9.43v-40.9c0-3.71.75-6.88,2.25-9.48,1.5-2.61,3.67-4.59,6.52-5.96s6.26-2.05,10.25-2.05,7.41.68,10.25,2.05c2.85,1.36,5.02,3.35,6.52,5.96,1.5,2.61,2.25,5.77,2.25,9.48v40.9c0,3.68-.75,6.83-2.25,9.43-1.5,2.61-3.67,4.6-6.52,5.98-2.85,1.38-6.26,2.07-10.25,2.07ZM304.41,273.37c1.98,0,3.5-.56,4.58-1.69s1.61-2.71,1.61-4.75v-37.73c0-2.01-.54-3.58-1.61-4.7-1.07-1.13-2.6-1.69-4.58-1.69s-3.45.56-4.52,1.69c-1.07,1.12-1.61,2.69-1.61,4.7v37.73c0,2.05.54,3.63,1.61,4.75s2.58,1.69,4.52,1.69Z"/><path class="b" d="M353.59,285.28v-74.34h12.68v74.34h-12.68ZM359.27,223.11v-12.17h27.4v12.17h-27.4ZM359.27,255.12v-12.17h24.85v12.17h-24.85Z"/><path class="b" d="M404.87,210.94v74.34h-12.68v-74.34h12.68Z"/><path class="b" d="M412.95,285.23v-74.29h9.97l17.49,49.59-1.38,1.99v-51.59h11.55v74.29h-10.07l-17.28-46.73,1.33-2.05v48.77h-11.61Z"/><path class="b" d="M455.08,285.28l17.74-74.34h8.9l17.74,74.34h-12.58l-9.61-48.72-9.61,48.72h-12.58ZM467.15,273.73v-11.86h20.25v11.86h-20.25Z"/><path class="b" d="M504.98,285.28v-74.34h12.68v74.34h-12.68ZM510.2,285.28v-12.17h26.79v12.17h-26.79Z"/><path class="c" d="M336.77,38.05l-66.97,74.05c-1.57,1.74-4.31,1.73-5.87-.02l-35.91-40.34,14.99-13.59,24.16,29.26c.15.21.45.24.64.08l63.74-55.48,5.22,6.04Z"/></svg>