<?xml version="1.0" encoding="UTF-8"?><svg id="a" xmlns="http://www.w3.org/2000/svg" viewBox="0 0 782.03 169.53"><defs><style>.b{fill:#fff;}.c{fill:#394e66;}.d{fill:#ecd07d;}</style></defs><path class="b" d="M248.47,80.47h16.79v20.01c0,3.53-.65,6.54-1.95,9.04-1.3,2.5-3.19,4.42-5.66,5.75-2.47,1.33-5.45,2-8.94,2s-6.55-.64-9.06-1.93c-2.51-1.29-4.44-3.15-5.77-5.59-1.33-2.44-2-5.37-2-8.81v-34.68c0-3.62.65-6.71,1.95-9.29,1.3-2.58,3.2-4.55,5.68-5.91,2.48-1.36,5.46-2.05,8.92-2.05s6.36.66,8.78,1.98c2.42,1.32,4.28,3.23,5.56,5.73,1.29,2.5,1.93,5.51,1.93,9.04v5.15h-11.73v-5.15c0-1.62-.41-2.9-1.24-3.82s-1.93-1.38-3.31-1.38c-1.53,0-2.74.51-3.63,1.54-.89,1.03-1.33,2.41-1.33,4.16v34.68c0,1.44.47,2.59,1.4,3.45s2.21,1.29,3.84,1.29,3-.45,3.96-1.36c.95-.9,1.43-2.15,1.43-3.75v-9.15h-5.61v-10.95Z"/><path class="b" d="M267.47,116.57l15.96-66.87h8l15.96,66.87h-11.31l-8.65-43.83-8.65,43.83h-11.31ZM278.32,106.17v-10.67h18.21v10.67h-18.21Z"/><path class="b" d="M312.35,116.57V49.7h11.45v66.87h-11.45ZM318.88,116.57v-10.72h10.03c1.41,0,2.51-.37,3.29-1.13.78-.75,1.17-1.8,1.17-3.15v-8.97c0-1.66-.4-2.94-1.19-3.86-.8-.92-1.95-1.38-3.45-1.38h-9.84v-10.58h9.57c1.35,0,2.4-.43,3.15-1.29.75-.86,1.13-2.08,1.13-3.68v-7.17c0-1.35-.38-2.4-1.13-3.15-.75-.75-1.79-1.13-3.1-1.13h-9.61v-10.67h10.76c4.54,0,8.06,1.2,10.55,3.61,2.5,2.41,3.75,5.8,3.75,10.19v7.17c0,3.04-.85,5.53-2.55,7.47-1.7,1.95-4.1,3.18-7.2,3.7,3.37.46,5.99,1.7,7.84,3.73,1.85,2.02,2.78,4.68,2.78,7.96v9.11c0,4.41-1.23,7.84-3.7,10.28-2.47,2.44-5.96,3.66-10.46,3.66h-11.77Z"/><path class="b" d="M347.26,116.57l15.96-66.87h8l15.96,66.87h-11.31l-8.65-43.83-8.65,43.83h-11.31ZM358.11,106.17v-10.67h18.21v10.67h-18.21Z"/><path class="b" d="M392.14,116.57V49.65h11.18v66.92h-11.18ZM397.25,88.28v-10.95h12.05c1.5,0,2.67-.39,3.49-1.17.83-.78,1.24-1.86,1.24-3.24v-7.45c0-1.53-.41-2.73-1.24-3.59-.83-.86-1.99-1.29-3.49-1.29h-12.05v-10.95h11.36c3.62,0,6.71.59,9.27,1.77,2.56,1.18,4.51,2.91,5.86,5.17,1.35,2.27,2.02,5.01,2.02,8.23v7.82c0,3.31-.67,6.13-2.02,8.46-1.35,2.33-3.3,4.11-5.86,5.34-2.56,1.23-5.65,1.84-9.27,1.84h-11.36ZM415.42,116.57l-8.88-30.35,10.44-2.12,10.67,32.47h-12.23Z"/><path class="b" d="M445.17,49.7v66.87h-11.41V49.7h11.41Z"/><path class="b" d="M451.52,60.64v-10.95h33.48v10.95h-33.48ZM462.55,116.57v-61.26h11.41v61.26h-11.41Z"/><path class="b" d="M505.69,117.26c-3.59,0-6.66-.62-9.22-1.86-2.56-1.24-4.51-3.04-5.86-5.38-1.35-2.35-2.02-5.17-2.02-8.48v-36.79c0-3.34.67-6.19,2.02-8.53,1.35-2.35,3.3-4.13,5.86-5.36,2.56-1.23,5.63-1.84,9.22-1.84s6.66.61,9.22,1.84c2.56,1.23,4.51,3.01,5.86,5.36,1.35,2.35,2.02,5.19,2.02,8.53v36.79c0,3.31-.67,6.14-2.02,8.48-1.35,2.35-3.3,4.14-5.86,5.38-2.56,1.24-5.63,1.86-9.22,1.86ZM505.69,105.85c1.78,0,3.15-.51,4.12-1.52.97-1.01,1.45-2.44,1.45-4.28v-33.94c0-1.81-.48-3.22-1.45-4.23-.97-1.01-2.34-1.52-4.12-1.52s-3.1.51-4.07,1.52c-.97,1.01-1.45,2.42-1.45,4.23v33.94c0,1.84.48,3.27,1.45,4.28.97,1.01,2.32,1.52,4.07,1.52Z"/><path class="b" d="M549.93,116.57V49.7h11.41v66.87h-11.41ZM555.04,60.64v-10.95h24.65v10.95h-24.65ZM555.04,89.43v-10.95h22.35v10.95h-22.35Z"/><path class="b" d="M596.06,49.7v66.87h-11.41V49.7h11.41Z"/><path class="b" d="M603.33,116.52V49.7h8.97l15.73,44.61-1.24,1.79v-46.4h10.39v66.82h-9.06l-15.54-42.03,1.2-1.84v43.87h-10.44Z"/><path class="b" d="M641.22,116.57l15.96-66.87h8l15.96,66.87h-11.31l-8.65-43.83-8.65,43.83h-11.31ZM652.08,106.17v-10.67h18.21v10.67h-18.21Z"/><path class="b" d="M686.11,116.57V49.7h11.41v66.87h-11.41ZM690.8,116.57v-10.95h24.1v10.95h-24.1Z"/><rect class="c" x="81.4" y="25.88" width="112.64" height="114.45" rx="9.87" ry="9.87"/><path class="d" d="M100.31,77.36s4.67,4.99,4.67,5.02c.11,4.59.85,7.93,2.22,11.8,1.49,4.21,3.74,8.03,6.75,11.45l-5.3,6.5c-4.16-4.29-7.27-9.08-9.33-14.37-2.07-5.29-3.1-11.12-3.1-17.49s1.03-12.2,3.1-17.5c2.07-5.3,5.18-10.09,9.33-14.35l5.3,6.53c-3.01,3.4-5.25,7.21-6.75,11.42-.79,2.24-1.38,3.45-1.75,5.93l-5.14,5.06Z"/><path class="d" d="M174.15,62.75c1.48,4.63,2.41,12.13,2.41,17.52,0,6.36-1.03,12.19-3.1,17.49s-5.18,10.08-9.33,14.37l-5.3-6.5c3-3.43,5.25-7.24,6.75-11.45s2.24-8.84,2.24-13.91c0-3.01.16-7.77-.16-10.5M162.64,58.99c-1.3-1.56-2.53-2.78-3.82-4.04l5.3-6.53c1.55,1.59,3.32,3.54,4.58,5.28"/><path class="d" d="M180.5,53.19l-48.06,53.14c-1.13,1.25-3.09,1.24-4.21-.02l-25.77-28.94,10.76-9.75,17.33,21c.11.15.32.18.46.05l45.74-39.81,3.75,4.34Z"/></svg>