<?xml version="1.0" encoding="UTF-8"?>
<svg id="a" xmlns="http://www.w3.org/2000/svg" version="1.1" viewBox="0 0 156.97 159.49">
  <!-- Generator: Adobe Illustrator 29.5.0, SVG Export Plug-In . SVG Version: 2.1.0 Build 137)  -->
  <defs>
    <style>
      .st0 {
        fill: #f5d079;
      }

      .st1 {
        fill: #294d67;
      }
    </style>
  </defs>
  <rect class="st1" width="156.97" height="159.49" rx="13.76" ry="13.76"/>
  <path class="st0" d="M26.36,71.73s6.51,6.95,6.5,6.99c.16,6.39,1.19,11.06,3.1,16.45,2.08,5.87,5.21,11.19,9.4,15.96l-7.39,9.05c-5.79-5.97-10.13-12.65-13-20.03-2.88-7.38-4.32-15.5-4.32-24.37s1.44-17,4.32-24.39c2.88-7.39,7.21-14.06,13-20l7.39,9.1c-4.19,4.74-7.32,10.05-9.4,15.91-1.11,3.12-1.92,4.81-2.44,8.27l-7.17,7.05Z"/>
  <path class="st0" d="M129.25,51.37c2.07,6.45,3.36,16.91,3.36,24.42,0,8.87-1.44,16.99-4.32,24.37-2.88,7.38-7.21,14.05-13,20.03l-7.39-9.05c4.19-4.77,7.32-10.09,9.4-15.96s3.12-12.33,3.12-19.38c0-4.19.23-10.83-.23-14.63M113.22,46.13c-1.82-2.17-3.52-3.88-5.32-5.63l7.39-9.1c2.16,2.22,4.63,4.94,6.38,7.36"/>
  <path class="st0" d="M138.11,38.05l-66.97,74.05c-1.57,1.74-4.31,1.73-5.87-.02l-35.91-40.34,14.99-13.59,24.16,29.26c.15.21.45.24.64.08l63.74-55.48,5.22,6.04Z"/>
</svg>