<?xml version="1.0" encoding="UTF-8"?>
<svg id="Layer_1" xmlns="http://www.w3.org/2000/svg" version="1.1" viewBox="0 0 336.54 192.73">
  <!-- Generator: Adobe Illustrator 29.5.0, SVG Export Plug-In . SVG Version: 2.1.0 Build 137)  -->
  <g>
    <path d="M27.06,191.15c-2.79,1.18-7.39,2.14-12.07,2.14-8.21,0-14.49-4.48-14.49-13.17v-12.49c0-9.02,6.74-13.65,15.82-13.65,4.48,0,8.15.99,10.07,1.75l-1.27,6.74c-1.69-.59-4.88-1.38-7.92-1.38-5.22,0-8.29,2.59-8.29,7.02v11.76c0,4.37,2.59,6.49,7.02,6.49,1.44,0,2.68-.17,3.78-.48v-12.27h7.36v17.54Z"/>
    <path d="M42.74,176.91h4.99v-1.95c0-2.51-.99-4.17-4.91-4.17-3.19,0-6.34.82-8.04,1.33l-1.02-6.34c1.75-.56,5.87-1.69,10.21-1.69,8.23,0,11.45,3.21,11.45,11.11v9.19c0,1.44.59,2.23,1.66,2.23.73,0,1.44-.14,1.8-.23l.08,6.09c-.82.37-2.48.82-4.4.82-2.48,0-4.34-.9-5.56-2.88-2,1.47-4.85,2.88-8.04,2.88-4.99,0-8.49-2.54-8.49-8.12s4.93-8.26,10.24-8.26ZM47.73,186.33v-4.99h-4.15c-2.28,0-3.61,1.18-3.61,3.38,0,2.06,1.41,3.07,3.16,3.07s3.16-.54,4.6-1.47Z"/>
    <path d="M89.06,181.31c0,7.73-4.96,11.98-13.45,11.98-5.16,0-9.14-.93-12.01-2.09v-39.2h7.9v14.92c2.09-1.55,4.62-2.85,7.98-2.85,5.19,0,9.59,3.83,9.59,10.77v6.46ZM71.69,172.77v13.34c1.04.31,2.48.62,4.17.62,3.61,0,5.1-2.2,5.1-5.24v-5.56c0-3.1-1.27-5.08-4.29-5.08-1.92,0-3.67.85-4.99,1.92Z"/>
    <path d="M103.36,176.91h4.99v-1.95c0-2.51-.99-4.17-4.91-4.17-3.19,0-6.34.82-8.04,1.33l-1.02-6.34c1.75-.56,5.87-1.69,10.21-1.69,8.23,0,11.45,3.21,11.45,11.11v9.19c0,1.44.59,2.23,1.66,2.23.73,0,1.44-.14,1.8-.23l.08,6.09c-.82.37-2.48.82-4.4.82-2.48,0-4.34-.9-5.56-2.88-2,1.47-4.85,2.88-8.04,2.88-4.99,0-8.49-2.54-8.49-8.12s4.93-8.26,10.24-8.26ZM108.35,186.33v-4.99h-4.15c-2.28,0-3.61,1.18-3.61,3.38,0,2.06,1.41,3.07,3.16,3.07s3.16-.54,4.6-1.47Z"/>
    <path d="M131.1,164.65l.48,3.75c2.11-2,5.7-4.26,9.02-4.31l.06,7.78c-2.76.17-6.15,1.47-8.35,3.19v17.68h-8.09v-28.09h6.88Z"/>
    <path d="M149.09,152.38c2.85,0,4.43,1.35,4.43,4.17s-1.58,4.17-4.43,4.17-4.37-1.38-4.37-4.17,1.55-4.17,4.37-4.17ZM153.15,164.65v28.09h-8.09v-28.09h8.09Z"/>
    <path d="M157.18,164.65h3.89l.45-7.84h7.25c0,2.62.03,5.22.03,7.84h5.95v6.23h-5.78v12.72c0,2.45,1.13,3.16,2.9,3.16,1.3,0,2.82-.25,3.38-.37l.45,6.18c-1.1.31-3.33.73-6.04.73-4.85,0-8.04-2-8.52-6.6-.42-4.77-.28-10.49-.28-15.82h-3.69v-6.23Z"/>
    <path d="M178.7,175.9c0-7.75,5.3-11.81,13-11.81s12.97,4.06,12.97,11.81v5.61c0,7.73-5.3,11.79-12.97,11.79s-13-4.06-13-11.79v-5.61ZM186.79,181.82c0,3.13,1.75,5.05,4.91,5.05s4.88-1.92,4.88-5.05v-6.23c0-3.1-1.72-5.08-4.88-5.08s-4.91,1.97-4.91,5.08v6.23Z"/>
    <path d="M223.5,154.55h23.55v6.97h-15.14v8.6h14.55v6.85h-14.55v15.76h-8.4v-38.18Z"/>
    <path d="M256.04,152.38c2.85,0,4.43,1.35,4.43,4.17s-1.58,4.17-4.43,4.17-4.37-1.38-4.37-4.17,1.55-4.17,4.37-4.17ZM260.1,164.65v28.09h-8.09v-28.09h8.09Z"/>
    <path d="M274.25,164.65l.42,2.99c2.71-1.92,6.12-3.55,9.67-3.55,5.1,0,8.04,2.85,8.04,8.15v20.5h-8.09v-17.99c0-2.2-.99-3.41-3.27-3.41-1.64,0-3.75.73-5.61,2.06v19.34h-8.09v-28.09h6.94Z"/>
    <path d="M307.58,176.91h4.99v-1.95c0-2.51-.99-4.17-4.91-4.17-3.19,0-6.34.82-8.04,1.33l-1.02-6.34c1.75-.56,5.87-1.69,10.21-1.69,8.23,0,11.45,3.21,11.45,11.11v9.19c0,1.44.59,2.23,1.66,2.23.73,0,1.44-.14,1.8-.23l.08,6.09c-.82.37-2.48.82-4.4.82-2.48,0-4.34-.9-5.56-2.88-2,1.47-4.85,2.88-8.04,2.88-4.99,0-8.49-2.54-8.49-8.12s4.93-8.26,10.24-8.26ZM312.57,186.33v-4.99h-4.14c-2.28,0-3.61,1.18-3.61,3.38,0,2.06,1.41,3.07,3.16,3.07s3.16-.54,4.6-1.47Z"/>
    <path d="M336.54,152.01v40.72h-8.09v-40.72h8.09Z"/>
  </g>
  <path d="M245.52,6.61l-73.23,80.97c-1.72,1.9-4.71,1.89-6.42-.02l-39.27-44.11,16.39-14.86,26.41,32c.16.23.49.27.7.08L239.82,0l5.71,6.61Z"/>
  <path d="M198.6,92.48l4.78,8.46c-3.48,3.58-16.21,14.88-34.84,14.88s-31.39-11.29-34.87-14.88l4.74-8.46c3.45,2.49,14.78,10.65,30.13,10.65s26.62-8.16,30.06-10.65Z"/>
</svg>