<?xml version="1.0" encoding="UTF-8"?><svg id="a" xmlns="http://www.w3.org/2000/svg" viewBox="0 0 507.59 285.62"><defs><style>.b{fill:#f5d079;}.c{fill:#142233;}.d{fill:#294d67;}</style></defs><path class="c" d="M17.45,246.95h17.64v21.02c0,3.71-.69,6.87-2.05,9.5-1.37,2.63-3.35,4.64-5.94,6.04-2.59,1.4-5.73,2.1-9.4,2.1s-6.88-.68-9.52-2.03c-2.64-1.35-4.66-3.31-6.07-5.87-1.4-2.56-2.1-5.65-2.1-9.26v-36.44c0-3.8.68-7.06,2.05-9.76,1.37-2.71,3.36-4.78,5.97-6.21s5.73-2.15,9.38-2.15,6.69.69,9.23,2.08c2.54,1.39,4.49,3.39,5.85,6.02,1.35,2.63,2.03,5.79,2.03,9.5v5.41h-12.32v-5.41c0-1.71-.43-3.04-1.3-4.01-.87-.97-2.03-1.45-3.48-1.45-1.61,0-2.88.54-3.82,1.62-.93,1.08-1.4,2.54-1.4,4.37v36.44c0,1.52.49,2.72,1.47,3.62.98.9,2.33,1.35,4.04,1.35s3.16-.48,4.16-1.43c1-.95,1.5-2.26,1.5-3.94v-9.62h-5.9v-11.5Z"/><path class="c" d="M37.41,284.89l16.77-70.27h8.41l16.77,70.27h-11.89l-9.09-46.06-9.09,46.06h-11.89ZM48.81,273.97v-11.21h19.14v11.21h-19.14Z"/><path class="c" d="M84.57,284.89v-70.27h12.03v70.27h-12.03ZM91.44,284.89v-11.26h10.54c1.48,0,2.63-.39,3.46-1.18.82-.79,1.23-1.89,1.23-3.31v-9.42c0-1.74-.42-3.09-1.26-4.06-.84-.97-2.05-1.45-3.62-1.45h-10.34v-11.12h10.05c1.42,0,2.52-.45,3.31-1.35.79-.9,1.18-2.19,1.18-3.87v-7.54c0-1.42-.4-2.52-1.18-3.31-.79-.79-1.88-1.18-3.26-1.18h-10.1v-11.21h11.31c4.77,0,8.47,1.26,11.09,3.79,2.63,2.53,3.94,6.1,3.94,10.7v7.54c0,3.19-.89,5.81-2.68,7.85-1.79,2.05-4.31,3.34-7.56,3.89,3.54.48,6.29,1.79,8.24,3.91,1.95,2.13,2.92,4.91,2.92,8.36v9.57c0,4.64-1.3,8.24-3.89,10.8-2.59,2.56-6.26,3.84-10.99,3.84h-12.37Z"/><path class="c" d="M121.26,284.89l16.77-70.27h8.41l16.77,70.27h-11.89l-9.09-46.06-9.09,46.06h-11.89ZM132.66,273.97v-11.21h19.14v11.21h-19.14Z"/><path class="c" d="M168.43,284.89v-70.32h11.74v70.32h-11.74ZM173.79,255.17v-11.5h12.66c1.58,0,2.8-.41,3.67-1.23s1.3-1.96,1.3-3.41v-7.83c0-1.61-.43-2.87-1.3-3.77s-2.09-1.35-3.67-1.35h-12.66v-11.5h11.94c3.8,0,7.05.62,9.74,1.86,2.69,1.24,4.74,3.05,6.16,5.44,1.42,2.38,2.13,5.27,2.13,8.65v8.22c0,3.48-.71,6.44-2.13,8.89-1.42,2.45-3.47,4.32-6.16,5.61-2.69,1.29-5.94,1.93-9.74,1.93h-11.94ZM192.88,284.89l-9.33-31.9,10.97-2.22,11.21,34.12h-12.86Z"/><path class="c" d="M224.15,214.62v70.27h-11.99v-70.27h11.99Z"/><path class="c" d="M230.82,226.12v-11.5h35.18v11.5h-35.18ZM242.42,284.89v-64.37h11.99v64.37h-11.99Z"/><path class="c" d="M287.75,285.62c-3.77,0-7-.65-9.69-1.96-2.69-1.31-4.74-3.19-6.16-5.66-1.42-2.46-2.13-5.44-2.13-8.92v-38.66c0-3.51.71-6.5,2.13-8.96,1.42-2.46,3.47-4.34,6.16-5.63,2.69-1.29,5.92-1.93,9.69-1.93s7,.65,9.69,1.93c2.69,1.29,4.74,3.17,6.16,5.63,1.42,2.47,2.13,5.45,2.13,8.96v38.66c0,3.48-.71,6.45-2.13,8.92-1.42,2.47-3.47,4.35-6.16,5.66-2.69,1.3-5.92,1.96-9.69,1.96ZM287.75,273.63c1.87,0,3.31-.53,4.33-1.6,1.01-1.06,1.52-2.56,1.52-4.49v-35.67c0-1.9-.51-3.38-1.52-4.45-1.02-1.06-2.46-1.6-4.33-1.6s-3.26.53-4.28,1.6c-1.02,1.06-1.52,2.55-1.52,4.45v35.67c0,1.93.51,3.43,1.52,4.49,1.01,1.06,2.44,1.6,4.28,1.6Z"/><path class="c" d="M334.24,284.89v-70.27h11.99v70.27h-11.99ZM339.6,226.12v-11.5h25.9v11.5h-25.9ZM339.6,256.38v-11.5h23.49v11.5h-23.49Z"/><path class="c" d="M382.71,214.62v70.27h-11.99v-70.27h11.99Z"/><path class="c" d="M390.35,284.84v-70.22h9.42l16.53,46.88-1.3,1.88v-48.76h10.92v70.22h-9.52l-16.34-44.17,1.26-1.93v46.11h-10.97Z"/><path class="c" d="M430.17,284.89l16.77-70.27h8.41l16.77,70.27h-11.89l-9.09-46.06-9.09,46.06h-11.89ZM441.58,273.97v-11.21h19.14v11.21h-19.14Z"/><path class="c" d="M477.34,284.89v-70.27h11.99v70.27h-11.99ZM482.27,284.89v-11.5h25.32v11.5h-25.32Z"/><rect class="d" x="176.02" width="156.97" height="159.49" rx="13.76" ry="13.76"/><path class="b" d="M202.39,71.73s6.51,6.95,6.5,6.99c.16,6.39,1.19,11.06,3.1,16.45,2.08,5.87,5.21,11.19,9.4,15.96l-7.39,9.05c-5.79-5.97-10.13-12.65-13-20.03-2.88-7.38-4.32-15.5-4.32-24.37s1.44-17,4.32-24.39c2.88-7.39,7.21-14.06,13-20l7.39,9.1c-4.19,4.74-7.32,10.05-9.4,15.91-1.11,3.12-1.92,4.81-2.44,8.27l-7.17,7.05Z"/><path class="b" d="M305.28,51.37c2.07,6.45,3.36,16.91,3.36,24.42,0,8.87-1.44,16.99-4.32,24.37-2.88,7.38-7.21,14.05-13,20.03l-7.39-9.05c4.19-4.77,7.32-10.09,9.4-15.96s3.12-12.33,3.12-19.38c0-4.19.23-10.83-.23-14.63M289.24,46.13c-1.82-2.17-3.52-3.88-5.32-5.63l7.39-9.1c2.16,2.22,4.63,4.94,6.38,7.36"/><path class="b" d="M314.13,38.05l-66.97,74.05c-1.57,1.74-4.31,1.73-5.87-.02l-35.91-40.34,14.99-13.59,24.16,29.26c.15.21.45.24.64.08l63.74-55.48,5.22,6.04Z"/></svg>